PathFileType	4	(X/Y/Z)	1103211_Cal01.trc	
DataRate	CameraRate	NumFrames	NumMarkers	Units	OrigDataRate	OrigDataStartFrame	OrigNumFrames
300	300	4	77	mm	300	2	337
Frame#	Time	CLAV			STRN			RSHO			LSHO			C7			T10			RBAK			RASI			LASI			RPSI			LPSI			LGTR			RGTR			LHJC			RHJC			LMFC			RMFC			LLTP			RLTP			LMTP			RMTP			LANK			RANK			LMMA			RMMA			LHEE			RHEE			LMT5			RMT5			LTOE			RTOE			RELB			RWRA			RWRB			RFIN			LELB			LWRB			LWRA			LFIN			RFP1			RFP2			RFP3			RFM1			RFM2			RFM3			RFA1			RFA2			RFA3			LFP1			LFP2			LFP3			LFM1			LFM2			LFM3			LFA1			LFA2			LFA3			LKNE			RKNE			RTP1			RTP2			RTP3			RTA1			RTA2			RTA3			LTP1			LTP2			LTP3			LTA1			LFHD			LBHD			RFHD			RBHD			LUPA			LFRA			RUPA			RFRA			
		X1	Y1	Z1	X2	Y2	Z2	X3	Y3	Z3	X4	Y4	Z4	X5	Y5	Z5	X6	Y6	Z6	X7	Y7	Z7	X8	Y8	Z8	X9	Y9	Z9	X10	Y10	Z10	X11	Y11	Z11	X12	Y12	Z12	X13	Y13	Z13	X14	Y14	Z14	X15	Y15	Z15	X16	Y16	Z16	X17	Y17	Z17	X18	Y18	Z18	X19	Y19	Z19	X20	Y20	Z20	X21	Y21	Z21	X22	Y22	Z22	X23	Y23	Z23	X24	Y24	Z24	X25	Y25	Z25	X26	Y26	Z26	X27	Y27	Z27	X28	Y28	Z28	X29	Y29	Z29	X30	Y30	Z30	X31	Y31	Z31	X32	Y32	Z32	X33	Y33	Z33	X34	Y34	Z34	X35	Y35	Z35	X36	Y36	Z36	X37	Y37	Z37	X38	Y38	Z38	X39	Y39	Z39	X40	Y40	Z40	X41	Y41	Z41	X42	Y42	Z42	X43	Y43	Z43	X44	Y44	Z44	X45	Y45	Z45	X46	Y46	Z46	X47	Y47	Z47	X48	Y48	Z48	X49	Y49	Z49	X50	Y50	Z50	X51	Y51	Z51	X52	Y52	Z52	X53	Y53	Z53	X54	Y54	Z54	X55	Y55	Z55	X56	Y56	Z56	X57	Y57	Z57	X58	Y58	Z58	X59	Y59	Z59	X60	Y60	Z60	X61	Y61	Z61	X62	Y62	Z62	X63	Y63	Z63	X64	Y64	Z64	X65	Y65	Z65	X66	Y66	Z66	X67	Y67	Z67	X68	Y68	Z68	X69	Y69	Z69	X70	Y70	Z70	X71	Y71	Z71	X72	Y72	Z72	X73	Y73	Z73	X74	Y74	Z74	X75	Y75	Z75	X76	Y76	Z76	X77	Y77	Z77	

1	0.00000	190.43114	1375.61743	-47.37550	242.21233	1204.76953	-50.76866	90.27400	1425.20654	89.81198	88.39343	1434.08142	-191.89134	50.70543	1429.76453	-46.16933	15.26026	1135.46484	-51.82399	-7.24387	1327.81714	45.52081	180.69637	946.87128	61.49251	175.91667	953.29749	-165.80904	0.00000	955.96960	0.00000	-1.58903	954.99615	-98.05913	109.83151	869.10101	-216.85503	110.12714	858.17450	119.32094	104.27373	872.97522	-132.66026	104.15341	868.54260	26.26399	63.69234	466.75729	-83.70839	65.75986	471.75430	-15.45412	72.14111	447.75833	-212.51860	77.91226	450.97427	111.52736	62.43182	437.86896	-92.89107	65.98032	441.29559	-6.42485	57.48076	91.08369	-207.00008	55.89076	87.30277	108.57248	73.38742	98.60156	-121.31395	80.55458	92.85204	24.93553	-14.69056	59.89751	-159.30019	-15.87968	62.95772	60.13402	168.40659	30.82145	-243.65715	165.70081	40.87133	157.67920	212.96107	64.94296	-176.08424	214.54173	65.19581	91.03850	63.29776	1298.56738	348.37964	94.33714	1313.39941	593.31323	60.37851	1248.54480	587.80670	58.07199	1302.30273	668.17004	43.34899	1303.49976	-436.11078	36.93191	1265.50830	-685.43787	69.52655	1326.90979	-679.51099	30.86250	1321.89453	-758.91241	107.91928	762.88507	132.16772	106.07776	669.20721	131.06122	99.89546	577.67932	118.51538	170.33070	818.33075	113.32787	177.21187	717.45880	118.30484	174.23238	625.20172	108.05157	214.78419	771.50696	66.74811	209.12401	671.09650	65.35446	191.01640	580.83447	52.43504	107.44186	769.38965	-228.70406	101.80725	659.75415	-223.31602	93.19162	583.02515	-213.12968	165.40228	825.01843	-210.77351	166.58585	718.96075	-217.45012	159.82649	625.64825	-209.31459	216.66911	769.53448	-158.75310	207.72633	665.99261	-147.66316	186.84764	576.26422	-141.98778	77.89162	485.39917	-209.07927	88.62894	479.08170	109.19319	64.18935	374.18253	128.68527	55.17357	268.85202	125.70445	54.59035	182.63542	114.52325	124.64571	393.20709	63.62093	116.33633	315.60880	62.70697	108.15840	232.89566	65.01933	68.15552	360.26770	-228.60533	65.58308	279.10980	-225.47008	62.32475	194.08243	-216.69118	121.03314	400.74564	-155.97664	188.81322	1634.94861	-108.60716	75.56993	1608.09814	-128.39922	179.80830	1626.22913	39.03773	43.39853	1597.16248	35.54991	64.29205	1395.18005	-292.29352	26.24427	1309.13867	-584.41327	60.06497	1338.40784	274.50806	47.21387	1295.49573	432.54413	
2	0.00333	190.49174	1375.63550	-47.38228	242.22527	1204.74194	-50.76866	90.27657	1425.19409	89.78281	88.43269	1434.01587	-191.89674	50.75436	1429.73950	-46.19649	15.29425	1135.44165	-51.81154	-7.24370	1327.80994	45.51733	180.70872	946.87518	61.49486	175.94249	953.25922	-165.80775	0.01713	955.98657	-0.00972	-1.56691	954.98334	-98.06819	109.86478	869.07800	-216.84734	110.13774	858.16022	119.35663	104.28932	872.95062	-132.64812	104.15962	868.54791	26.27695	63.82039	466.68781	-83.74074	65.73856	471.74936	-15.44756	72.13185	447.71088	-212.51070	77.93190	450.94226	111.52026	62.25903	437.94162	-92.98302	65.95856	441.28955	-6.41176	57.50949	91.06451	-206.99928	55.90424	87.27937	108.56618	73.45604	98.62467	-121.34697	80.39787	92.81006	24.87135	-14.70580	59.87762	-159.29601	-15.87272	63.01728	60.14108	168.37738	30.78523	-243.65013	165.73132	40.83351	157.67096	212.98781	64.93459	-176.07921	214.54506	65.19665	91.06360	63.30794	1298.57007	348.41455	94.35771	1313.37061	593.31256	60.42296	1248.53882	587.82764	58.14467	1302.31274	668.14386	43.35049	1303.49902	-436.10956	37.03133	1265.46375	-685.44708	69.58644	1326.89453	-679.52448	30.89488	1321.87781	-758.92297	107.92879	762.86639	132.16191	106.08858	669.18604	131.05533	99.91273	577.66333	118.53450	170.35881	818.29773	113.36571	177.20027	717.43591	118.31726	174.23024	625.16559	108.07526	214.79555	771.52252	66.73514	209.11852	671.08398	65.38058	191.01259	580.81915	52.46472	107.31712	769.45392	-228.61235	101.84721	659.76080	-223.29781	93.22182	582.99390	-213.12645	165.42632	825.02209	-210.77403	166.59990	718.91492	-217.44527	159.89110	625.64935	-209.28160	216.61577	769.49371	-158.72972	207.68275	665.95862	-147.62752	186.92329	576.29669	-142.02138	77.92455	485.36484	-209.07423	88.62582	479.06439	109.17862	64.20064	374.16010	128.68596	55.17473	268.86856	125.69753	54.58864	182.62973	114.48459	124.66039	393.17282	63.67096	116.34564	315.56876	62.69695	108.15450	232.89171	65.02226	68.20981	360.28876	-228.58159	65.55910	279.08011	-225.47340	62.30086	194.05051	-216.71663	121.03838	400.72870	-155.97453	188.81801	1634.92395	-108.60515	75.64709	1608.11902	-128.42006	179.80861	1626.22839	39.03754	43.42330	1597.10791	35.51183	64.32303	1395.13831	-292.30823	26.24426	1309.12781	-584.41791	60.05231	1338.42139	274.47525	47.21529	1295.49780	432.53876	
3	0.00667	190.50407	1375.61108	-47.38542	242.22920	1204.72302	-50.77214	90.28052	1425.19446	89.79614	88.43842	1434.00427	-191.89403	50.75693	1429.73108	-46.20302	15.27238	1135.42932	-51.82777	-7.24541	1327.83887	45.50784	180.73729	946.85107	61.52045	175.98055	953.23187	-165.78801	0.05074	956.01489	0.00885	-1.53056	954.97729	-98.05342	109.89355	869.05524	-216.82707	110.19240	858.15851	119.33942	104.30969	872.93854	-132.62666	104.17328	868.53894	26.29849	63.77045	466.74448	-83.72728	65.77960	471.72046	-15.42461	72.15271	447.68832	-212.49590	77.95143	450.93845	111.50000	61.87318	437.67114	-92.93163	65.91051	441.30807	-6.40425	57.51825	91.05336	-206.99989	55.90517	87.27763	108.56453	73.44084	98.56743	-121.32259	80.61076	92.81212	24.93250	-14.68304	59.88849	-159.35066	-16.00907	63.27046	60.30476	168.36656	30.77836	-243.65993	165.74400	40.83097	157.65765	212.99544	64.91267	-176.11934	214.56593	65.18691	91.04958	63.33424	1298.54700	348.36786	94.39056	1313.38684	593.30542	60.41583	1248.52881	587.79700	58.15263	1302.32898	668.11627	43.38400	1303.49414	-436.13513	37.04744	1265.44897	-685.44556	69.61317	1326.84998	-679.52515	30.95916	1321.85107	-758.91223	107.95384	762.88892	132.20444	106.10918	669.20258	131.04443	99.91312	577.66418	118.53665	170.32889	818.35425	113.37744	177.22380	717.43469	118.28688	174.23566	625.16376	108.04712	214.80171	771.46942	66.71260	209.13268	671.06952	65.35225	191.02296	580.77637	52.45992	107.52678	769.32489	-228.67915	101.88316	659.72302	-223.29585	93.22527	582.99243	-213.12660	165.43874	824.95776	-210.75829	166.60513	718.88776	-217.44344	159.87091	625.59137	-209.28041	216.61937	769.42841	-158.72218	207.62508	665.88403	-147.62688	186.89479	576.26611	-141.99010	77.89818	485.34772	-209.07921	88.63940	479.07224	109.15790	64.22285	374.14612	128.68759	55.17528	268.86896	125.69608	54.58643	182.63033	114.48892	124.67583	393.18292	63.66014	116.35249	315.57581	62.70680	108.13428	232.87022	65.00468	68.22038	360.25290	-228.58250	65.56810	279.06641	-225.46941	62.32930	194.03674	-216.66728	121.47296	400.90161	-155.98763	188.83461	1634.86804	-108.60423	75.66975	1608.11865	-128.40987	179.77483	1626.17773	39.07378	43.45409	1597.07886	35.49420	64.18845	1395.02649	-292.43188	26.29644	1309.11121	-584.45050	60.06013	1338.43750	274.48450	47.20280	1295.51184	432.50967	
4	0.01000	190.50331	1375.61096	-47.38530	242.22914	1204.72742	-50.77052	90.28294	1425.17676	89.79747	88.41862	1433.97253	-191.90532	50.74406	1429.75574	-46.23143	15.27803	1135.44226	-51.83311	-7.25871	1327.81946	45.48381	180.74245	946.83990	61.51321	176.02675	953.20319	-165.79124	0.06675	956.00470	-0.03020	-1.49620	955.01288	-98.08946	109.91582	869.07196	-216.81129	110.19318	858.17346	119.31677	104.33554	872.92554	-132.63869	104.17050	868.53870	26.28679	63.69730	466.74377	-83.68449	65.77481	471.68228	-15.44078	72.16360	447.71204	-212.52745	77.93733	450.91217	111.50294	62.21008	437.84149	-92.90837	65.90086	441.29199	-6.40565	57.52469	91.06348	-207.00426	55.91521	87.29147	108.52478	73.49829	98.58737	-121.35323	80.64740	92.80917	24.91316	-14.70050	59.90186	-159.34953	-16.01731	63.25002	60.34216	168.58186	30.88930	-243.56425	165.76979	40.83579	157.65237	212.97069	64.91615	-176.10686	214.58122	65.15832	91.03371	63.35124	1298.53613	348.39050	94.41481	1313.38538	593.30084	60.46445	1248.53601	587.81171	58.19257	1302.33606	668.11005	43.42216	1303.47375	-436.12396	37.04636	1265.43225	-685.45020	69.64104	1326.80908	-679.52216	30.96852	1321.80896	-758.91925	107.97343	762.90839	132.23055	106.10991	669.20337	131.04433	99.86716	577.67535	118.53351	170.37982	818.39203	113.36140	177.24342	717.41919	118.28497	174.24614	625.14478	108.03757	214.82179	771.45013	66.72137	209.13213	671.09033	65.36154	191.02861	580.76086	52.45645	107.59586	769.27710	-228.69841	101.88751	659.71863	-223.29622	93.23940	582.96326	-213.12706	165.45131	824.96411	-210.75078	166.63309	718.86859	-217.43129	159.88705	625.57104	-209.26851	216.61760	769.38837	-158.72270	207.68791	665.86090	-147.62071	186.94936	576.22156	-142.01912	77.92638	485.34073	-209.05113	88.64285	479.04538	109.15666	64.22508	374.12509	128.66330	55.18771	268.88391	125.69708	54.59756	182.64236	114.49686	124.68758	393.16507	63.65764	116.37616	315.56638	62.70316	108.17509	232.86203	64.96185	68.17105	360.16891	-228.60387	65.58218	279.03174	-225.46846	62.33104	194.03799	-216.70189	121.28185	400.76846	-155.99156	188.87483	1634.83740	-108.60320	75.82094	1608.24292	-128.08986	179.76399	1626.17419	39.07637	43.46257	1597.07727	35.49075	64.31172	1395.09229	-292.31256	26.33781	1309.08923	-584.46344	60.08936	1338.43481	274.45758	47.21635	1295.52588	432.52441	
